<?xml version="1.0" encoding="utf-8"?>
<svg width="147.22858px" height="206.11572px" viewBox="0 0 147.22858 206.11572" version="1.1" xmlns:xlink="http://www.w3.org/1999/xlink" xmlns="http://www.w3.org/2000/svg">
  <g id="history">
    <path d="M139.948 17.4871L118.78 17.4871C118.953 18.1037 119.047 18.7505 119.047 19.4188L119.047 30.1342L126.246 30.1342C130.844 30.1342 134.583 33.8727 134.583 38.465L134.583 185.138C134.583 189.734 130.844 193.473 126.246 193.473L20.9828 193.473C16.3851 193.473 12.6458 189.734 12.6458 185.138L12.6458 38.465C12.6458 33.8727 16.3851 30.1342 20.9828 30.1342L28.1812 30.1342L28.1812 19.4188C28.1812 18.7505 28.2761 18.1037 28.4486 17.4871L7.28037 17.4871C3.26498 17.4871 2.67029e-05 20.7555 2.67029e-05 24.77L2.67029e-05 198.837C2.67029e-05 202.852 3.26498 206.115 7.28037 206.115L139.948 206.115C143.964 206.115 147.229 202.852 147.229 198.837L147.229 24.77C147.229 20.7555 143.964 17.4871 139.948 17.4871L139.948 17.4871ZM35.2847 35.574L111.922 35.574C112.987 35.574 113.854 34.7072 113.854 33.6422L113.854 19.4169C113.854 18.3518 112.987 17.4851 111.922 17.4851L111.672 17.4851C104.441 17.4851 97.6923 14.0786 93.1561 8.13238C89.327 3.11753 81.8371 -4.86374e-05 73.6054 -4.86374e-05C65.3738 -4.86374e-05 57.8839 3.11753 54.0548 8.13238C49.5186 14.0743 42.7703 17.4851 35.5391 17.4851L35.289 17.4851C34.2239 17.4851 33.3572 18.3518 33.3572 19.4169L33.3572 33.6422C33.3572 34.7072 34.2239 35.574 35.289 35.574L35.2847 35.574ZM73.6011 9.63731C76.5074 9.63731 78.8618 11.9917 78.8618 14.898C78.8618 17.8042 76.5074 20.1586 73.6011 20.1586C70.6948 20.1586 68.3405 17.8042 68.3405 14.898C68.3405 11.9917 70.6949 9.63731 73.6011 9.63731L73.6011 9.63731Z" id="Group" fill="#A8B1C3" fill-opacity="0.29803923" fill-rule="evenodd" stroke="none" />
    <path d="M113.099 176.244L34.9655 176.244C33.5383 176.244 32.3783 175.084 32.3783 173.656C32.3783 172.228 33.5383 171.068 34.9655 171.068L113.099 171.068C114.526 171.068 115.686 172.228 115.686 173.656C115.686 175.084 114.526 176.244 113.099 176.244L113.099 176.244ZM95.6546 154.681L52.4096 154.681C50.9823 154.681 49.8224 153.521 49.8224 152.094C49.8224 150.666 50.9823 149.506 52.4096 149.506L95.6546 149.506C97.082 149.506 98.2418 150.666 98.2418 152.094C98.2418 153.521 97.082 154.681 95.6546 154.681L95.6546 154.681Z" id="Group" fill="#A8B1C3" fill-opacity="0.29803923" fill-rule="evenodd" stroke="none" />
    <path d="M74.037 50.3743C51.211 50.3743 32.637 68.9439 32.637 91.7743C32.637 114.605 51.2066 133.17 74.037 133.17C96.8674 133.17 115.437 114.6 115.437 91.7743C115.437 68.9482 96.8674 50.3743 74.037 50.3743L74.037 50.3743ZM97.7946 107.01C97.2987 107.782 96.4663 108.201 95.6125 108.201C95.1338 108.201 94.6508 108.067 94.2195 107.791L72.6398 93.9479C71.898 93.4735 71.4495 92.6498 71.4495 91.7701L71.4495 67.5036C71.4495 66.0762 72.6096 64.9161 74.037 64.9161C75.4645 64.9161 76.6245 66.0762 76.6245 67.5036L76.6245 90.3556L97.014 103.435C98.2172 104.207 98.5665 105.807 97.7946 107.01L97.7946 107.01Z" id="Shape" fill="#A8B1C3" fill-opacity="0.29803923" fill-rule="evenodd" stroke="none" />
  </g>
</svg>